<svg width="25" height="21" viewBox="0 0 25 21" fill="none" xmlns="http://www.w3.org/2000/svg">
<path fill-rule="evenodd" clip-rule="evenodd" d="M12.037 10.5L9.02778 13.6023L8.33333 12.8864L12.5 8.59091L16.6667 12.8864L15.9722 13.6023L12.963 10.5V21H12.037V10.5ZM11.1111 15.2727H4.63224C2.59068 15.2727 0.925926 13.5633 0.925926 11.4545C0.925926 9.64531 2.15242 8.12484 3.79723 7.73387C3.73581 7.39284 3.7037 7.0412 3.7037 6.68182C3.7037 3.51873 6.19101 0.954545 9.25926 0.954545C11.681 0.954545 13.7408 2.55194 14.5013 4.7804C15.2183 4.17882 16.1331 3.81818 17.1296 3.81818C19.3133 3.81818 21.1046 5.54989 21.2819 7.75384C22.8838 8.17387 24.0741 9.67147 24.0741 11.4545C24.0741 13.559 22.4147 15.2727 20.3678 15.2727H13.8889V16.2273H20.3709C22.9275 16.2273 25 14.0851 25 11.4545C25 9.45342 23.8086 7.73994 22.1138 7.03071C21.6297 4.65078 19.5821 2.86364 17.1296 2.86364C16.3307 2.86364 15.5746 3.05332 14.9017 3.39139C13.7881 1.36638 11.6785 0 9.25926 0C5.67964 0 2.77778 2.99155 2.77778 6.68182C2.77778 6.81369 2.78148 6.94467 2.78879 7.07465C1.14783 7.80972 0 9.4969 0 11.4545C0 14.0904 2.06712 16.2273 4.62911 16.2273H11.1111V15.2727Z" fill="#0E8DF6"/>
</svg>
